<svg xmlns="http://www.w3.org/2000/svg" width="18.334" height="16.761" viewBox="0 0 18.334 16.761">
    <defs>
        <clipPath id="tbbhyfdiya">
            <path data-name="사각형 7160" style="fill:#fff" d="M0 0h18.334v16.761H0z"/>
        </clipPath>
    </defs>
    <g data-name="그룹 8414" style="clip-path:url(#tbbhyfdiya)">
        <path data-name="패스 12643" d="M18.06 13.614 10.948 1.049a2.036 2.036 0 0 0-3.561 0L.275 13.614a2.132 2.132 0 0 0 .425 2.63 2.055 2.055 0 0 0 1.37.517h14.191a2.055 2.055 0 0 0 1.37-.516 2.133 2.133 0 0 0 .429-2.63M9.167 14.85a1.117 1.117 0 1 1 1.095-1.117 1.106 1.106 0 0 1-1.095 1.117m1.095-4.577a1.1 1.1 0 1 1-2.19 0v-4.9a1.1 1.1 0 1 1 2.19 0z" style="fill:#fff"/>
    </g>
</svg>
